<svg xmlns="http://www.w3.org/2000/svg" fill="none" viewBox="0 0 394 80">
  <path fill="#000" d="M262 0h68.5v12.7h-27.2v66.6h-13.6V12.7H262V0ZM149.6 0v12.7H94v20.4h44.3v12.6H94v21h56.5v12.6H80.5V0h69.1Zm34.3 0h-17.8l63.8 79.4h17.9l-32-39.9 32-39.5h-17.9l-23.2 29-23.2-29Zm18.3 56.7-9-11-27.1 33.7h17.8l18.3-22.7Z"/>
  <path fill="#000" d="M81 79.3 17 0H0v79.3h13.6V17l50.2 62.3H81Zm252.6-.4c-1 0-1.8-.2-2.5-.7a4.4 4.4 0 0 1-1.4-1.8 6 6 0 0 1-.5-2.4c0-.9.2-1.6.5-2.2a4 4 0 0 1 1.4-1.8 5 5 0 0 1 2.5-.7 5 5 0 0 1 2.5.7 4 4 0 0 1 1.4 1.8c.3.6.5 1.3.5 2.2 0 .9-.2 1.6-.5 2.4a4 4 0 0 1-1.4 1.8 5 5 0 0 1-2.5.7Zm23.2-33.5a4.4 4.4 0 0 0-2-3.3 7.5 7.5 0 0 0-4.3-1.1 7.8 7.8 0 0 0-4.3 1.1 4.6 4.6 0 0 0-2 3.3 5 5 0 0 0 .5 2.2 4 4 0 0 0 1.5 1.8 5 5 0 0 0 2.5.7 5 5 0 0 0 2.5-.7 4 4 0 0 0 1.5-1.8 5 5 0 0 0 .5-2.2Zm-13.6 9.8a6 6 0 0 1 1.4-4.4 5 5 0 0 1 3.8-1.6 5 5 0 0 1 3.8 1.6 6 6 0 0 1 1.4 4.4v12.6h-6.8V56.2Zm0 18.7a4.4 4.4 0 0 0-1.4 3.3 5 5 0 0 0 1.4 3.2 5 5 0 0 0 3.8 1.4 5 5 0 0 0 3.8-1.4 4.4 4.4 0 0 0 1.4-3.2 5 5 0 0 0-1.4-3.3 5 5 0 0 0-3.8-1.4 5 5 0 0 0-3.8 1.4Z"/>
</svg>



